<svg width="20" height="20" viewBox="0 0 20 20" fill="none" xmlns="http://www.w3.org/2000/svg">
  <path
    d="M7 4.75H5.75C4.64543 4.75 3.75 5.64543 3.75 6.75V15.25C3.75 16.3546 4.64543 17.25 5.75 17.25H14.25C15.3546 17.25 16.25 16.3546 16.25 15.25V6.75C16.25 5.64543 15.3546 4.75 14.25 4.75H13"
    stroke="currentColor"
    stroke-width="1.5"
    stroke-linecap="round"
    stroke-linejoin="round"
  />
  <path
    d="M12 6.25H8C7.44772 6.25 7 5.80228 7 5.25V3.75C7 3.19772 7.44772 2.75 8 2.75H12C12.5523 2.75 13 3.19772 13 3.75V5.25C13 5.80228 12.5523 6.25 12 6.25Z"
    stroke="currentColor"
    stroke-width="1.5"
    stroke-linecap="round"
    stroke-linejoin="round"
  />
  <path d="M7.75 10.25H12.25" stroke="currentColor" stroke-width="1.5" stroke-linecap="round" stroke-linejoin="round" />
  <path d="M7.75 13.25H12.25" stroke="currentColor" stroke-width="1.5" stroke-linecap="round" stroke-linejoin="round" />
</svg>
