<svg width="20" height="20" viewBox="0 0 20 20" fill="none" xmlns="http://www.w3.org/2000/svg">
  <path
    d="M7.25 2H3.75C2.7835 2 2 2.7835 2 3.75V6.91667C2 7.88317 2.7835 8.66667 3.75 8.66667H5.08182C5.13705 8.66667 5.18182 8.71144 5.18182 8.76667V11.78C5.18182 11.8658 5.2829 11.9118 5.34758 11.8553L8.31532 9.26441C8.75036 8.8846 9 8.33528 9 7.75777V3.75C9 2.7835 8.2165 2 7.25 2Z"
    stroke="currentColor"
    stroke-width="1.5"
  />
  <path
    d="M16.25 8H12.75C11.7835 8 11 8.7835 11 9.75V12.9167C11 13.8832 11.7835 14.6667 12.75 14.6667H14.0818C14.137 14.6667 14.1818 14.7114 14.1818 14.7667V17.78C14.1818 17.8658 14.2829 17.9118 14.3476 17.8553L17.3153 15.2644C17.7504 14.8846 18 14.3353 18 13.7578V9.75C18 8.7835 17.2165 8 16.25 8Z"
    stroke="currentColor"
    stroke-width="1.5"
  />
</svg>
